<?xml version="1.0" encoding="UTF-8" standalone="no"?>
<svg
   xmlns:dc="http://purl.org/dc/elements/1.1/"
   xmlns:cc="http://creativecommons.org/ns#"
   xmlns:rdf="http://www.w3.org/1999/02/22-rdf-syntax-ns#"
   xmlns:svg="http://www.w3.org/2000/svg"
   xmlns="http://www.w3.org/2000/svg"
   xmlns:sodipodi="http://sodipodi.sourceforge.net/DTD/sodipodi-0.dtd"
   xmlns:inkscape="http://www.inkscape.org/namespaces/inkscape"
   width="2500"
   height="997"
   viewBox="-0.01 0 1104.578 440.299"
   id="svg2"
   version="1.1"
   inkscape:version="0.91 r13725"
   sodipodi:docname="emBreve.svg">
  <metadata
     id="metadata32">
    <rdf:RDF>
      <cc:Work
         rdf:about="">
        <dc:format>image/svg+xml</dc:format>
        <dc:type
           rdf:resource="http://purl.org/dc/dcmitype/StillImage" />
        <dc:title />
      </cc:Work>
    </rdf:RDF>
  </metadata>
  <defs
     id="defs30" />
  <sodipodi:namedview
     pagecolor="#ffffff"
     bordercolor="#666666"
     borderopacity="1"
     objecttolerance="10"
     gridtolerance="10"
     guidetolerance="10"
     inkscape:pageopacity="0"
     inkscape:pageshadow="2"
     inkscape:window-width="1280"
     inkscape:window-height="948"
     id="namedview28"
     showgrid="false"
     inkscape:zoom="0.3936"
     inkscape:cx="1348.6234"
     inkscape:cy="531.1786"
     inkscape:window-x="0"
     inkscape:window-y="24"
     inkscape:window-maximized="1"
     inkscape:current-layer="g6" />
  <path
     d="M484.234 30.257v360.001h580V30.257h-580z"
     fill="#fff"
     id="path4" />
  <g
     transform="translate(249.856 -264.397)"
     id="g6">
    <linearGradient
       id="a"
       gradientUnits="userSpaceOnUse"
       x1="-1955.608"
       y1="379.934"
       x2="-1955.608"
       y2="810.327"
       gradientTransform="matrix(1 0 0 -1 2479.251 1074.056)">
      <stop
         offset="0"
         stop-color="#912420"
         id="stop13" />
      <stop
         offset="1"
         stop-color="#cf332d"
         id="stop15" />
    </linearGradient>
    <path
       d="M451.832 704.274c-23.375-.415-51.05-1.062-61.5-1.438-70.166-2.524-118.34-5.223-127.965-7.168-13.72-2.771-29.052-12.056-37.95-22.979-14.261-17.507-21.855-38.749-25.545-71.445-8.576-76.016-8.386-164.644.511-238 3.896-32.127 13.591-55.353 29.863-71.547 9.287-9.242 18.209-14.416 30.109-17.459 25.748-6.586 227.351-11.83 349.977-9.104 70.83 1.574 147.369 4.838 167.712 7.151 26.309 2.991 44.781 16.616 57.564 42.459 9.652 19.512 12.757 34.699 16.661 81.5 3.093 37.078 3.827 60.161 3.276 102.941-.659 51.201-3.915 96.297-8.78 121.62-5.142 26.764-17.313 49.585-33.03 61.934-12.145 9.541-25.076 13.798-45.403 14.945-6.05.342-13.7.83-17 1.085-11.738.907-74.547 3.455-109 4.421-51.208 1.436-140.784 1.948-189.5 1.084z"
       fill="url(#a)"
       id="path17" />
    <path
       d="M253.701 341.034v37.969l22.25.281 22.25.281.25 120.5c.136 66.275.455 121.051.719 121.75.37.982 5.005 1.21 20.281 1l19.75-.25.5-121.5.5-121.5 22.781-.281 22.781-.281-.281-18.719-.281-18.719-65.75-.281-65.75-.25zm286 .031v282h36v-9.5c0-6.297.39-9.5 1.125-9.5.61 0 4.655 3.319 9 7.406 14.001 13.171 26.13 16.808 41.25 12.344 5.794-1.71 12.862-8.625 16.031-15.688 6.086-13.562 6.094-13.879 6.094-90.062 0-62.542-.15-70.251-1.719-77-5.027-21.638-15.998-31.111-34.406-29.719-10.323.78-18.456 4.891-28.188 14.281-4.228 4.08-8.024 7.438-8.438 7.438-.412 0-.75-20.7-.75-46v-46H539.701zm198.125 70.063c-5.86.12-11.724 1.17-17.344 3.219-19.391 7.07-30.849 19.812-35.469 39.5-1.633 6.958-1.812 13.216-1.812 64.219 0 62.554.229 65.107 6.625 77.906 11.396 22.804 39.94 34.695 65.875 27.438 19.262-5.391 32.589-18.533 37.594-37.094.855-3.172 1.804-12.162 2.125-20l.594-14.25h-37.062l-.469 12.75c-.521 14.521-2.008 19.495-7.281 24.125-5.628 4.941-15.962 5.282-22.688.75-7.995-5.389-9.995-14.499-9.594-44.125l.281-21 38.375-.281 38.375-.25-.531-31.25c-.588-34.845-1.314-40.134-7.188-52.5-8.704-18.33-29.478-29.586-50.406-29.157zm-343.125 2.937v90.531c0 98.587.104 100.712 5.625 110.219 6.03 10.385 20.19 13.639 35.094 8.062 7.198-2.693 15.63-8.518 22.75-15.75 3.282-3.334 6.546-6.062 7.25-6.062.964 0 1.281 2.724 1.281 11v11h36v-209h-36v161.219l-7.75 7.719c-6.152 6.116-8.739 7.958-12.531 9-6.444 1.771-10.498.556-13.156-3.969-2.006-3.414-2.046-4.949-2.312-88.719l-.281-85.25h-35.97zm344.594 29.625c8.034 0 13.1 3.093 16.531 10.062 2.175 4.418 2.415 6.279 2.719 22.562l.312 17.75h-19.594c-16.896 0-19.7-.241-20.219-1.594-.928-2.418.366-30.452 1.594-34.531 2.886-9.584 9.006-14.249 18.657-14.249zm-144.125 2.344c5.649-.203 10.511 2.391 13.125 7.656 1.819 3.666 1.942 6.958 2.156 62.875.205 53.647.069 59.443-1.5 63.969-1.205 3.475-2.753 5.663-5.125 7.25-5.995 4.012-14.702 2.73-22.625-3.312l-3.5-2.656V454.285l3.5-2.656c4.697-3.584 9.575-5.438 13.969-5.595z"
       opacity=".753"
       id="path19" />
    <linearGradient
       id="b"
       gradientUnits="userSpaceOnUse"
       x1="-1954.394"
       y1="632.537"
       x2="-1954.394"
       y2="256.498"
       gradientTransform="matrix(1 0 0 -1 2479.251 1074.056)">
      <stop
         offset="0"
         stop-color="#fff"
         id="stop22" />
      <stop
         offset="1"
         stop-color="#b3b3b3"
         id="stop24" />
    </linearGradient>
    <path
       d="M253.701 336.176v37.969l22.25.281 22.25.281.25 120.5c.136 66.275.455 121.052.719 121.751.37.981 5.005 1.209 20.281 1l19.75-.25.5-121.501.5-121.5 22.781-.281 22.781-.281-.281-18.719-.281-18.719-65.75-.281-65.75-.25zm286 .032v282h36v-9.5c0-6.296.39-9.5 1.125-9.5.61 0 4.655 3.319 9 7.406 14.001 13.171 26.13 16.808 41.25 12.344 5.794-1.71 12.862-8.625 16.031-15.688 6.086-13.561 6.094-13.879 6.094-90.062 0-62.542-.15-70.251-1.719-77-5.027-21.638-15.998-31.11-34.406-29.719-10.323.781-18.456 4.891-28.188 14.281-4.228 4.08-8.024 7.438-8.438 7.438-.412.001-.75-20.7-.75-46v-46H539.701zm198.125 70.062c-5.86.12-11.724 1.17-17.344 3.219-19.391 7.07-30.849 19.813-35.469 39.5-1.633 6.959-1.812 13.216-1.812 64.219 0 62.554.229 65.107 6.625 77.906 11.396 22.804 39.94 34.695 65.875 27.438 19.262-5.39 32.589-18.532 37.594-37.094.855-3.171 1.804-12.162 2.125-20l.594-14.25h-37.062l-.469 12.75c-.521 14.521-2.008 19.495-7.281 24.125-5.628 4.941-15.962 5.283-22.688.75-7.995-5.388-9.995-14.498-9.594-44.125l.281-21 38.375-.281 38.375-.25-.531-31.25c-.588-34.845-1.314-40.134-7.188-52.5-8.704-18.33-29.478-29.585-50.406-29.157zm-343.125 2.938v90.531c0 98.588.104 100.713 5.625 110.219 6.03 10.386 20.19 13.64 35.094 8.062 7.198-2.692 15.63-8.518 22.75-15.75 3.282-3.334 6.546-6.062 7.25-6.062.964 0 1.281 2.724 1.281 11v11h36v-209h-36v161.219l-7.75 7.719c-6.152 6.116-8.739 7.959-12.531 9-6.444 1.771-10.498.557-13.156-3.969-2.006-3.413-2.046-4.949-2.312-88.719l-.281-85.25h-35.97zm344.594 29.625c8.034 0 13.1 3.093 16.531 10.062 2.175 4.418 2.415 6.28 2.719 22.562l.312 17.75h-19.594c-16.896 0-19.7-.241-20.219-1.594-.928-2.417.366-30.452 1.594-34.531 2.886-9.584 9.006-14.249 18.657-14.249zm-144.125 2.343c5.649-.202 10.511 2.391 13.125 7.656 1.819 3.666 1.942 6.959 2.156 62.875.205 53.647.069 59.444-1.5 63.969-1.205 3.476-2.753 5.663-5.125 7.25-5.995 4.012-14.702 2.73-22.625-3.312l-3.5-2.656V449.427l3.5-2.656c4.697-3.583 9.575-5.436 13.969-5.595z"
       fill="url(#b)"
       stroke="#fff"
       id="path26" />
    <rect
       style="opacity:1;fill:#cb322c;fill-opacity:1;stroke:none;stroke-width:14.39999962;stroke-miterlimit:4;stroke-dasharray:none;stroke-opacity:1"
       id="rect3360"
       width="603.92584"
       height="370.48743"
       x="229.45798"
       y="307.37097"
       ry="64.160103"
       rx="24.065353" />
    <text
       xml:space="preserve"
       style="font-style:normal;font-weight:normal;font-size:321.95617676px;line-height:125%;font-family:sans-serif;letter-spacing:0px;word-spacing:0px;fill:#000000;fill-opacity:1;stroke:none;stroke-width:1px;stroke-linecap:butt;stroke-linejoin:miter;stroke-opacity:1"
       x="-308.81412"
       y="482.62589"
       id="text3362"
       sodipodi:linespacing="125%"
       transform="matrix(0.75690038,-0.00753718,0.00431818,1.3211348,0,0)"><tspan
         sodipodi:role="line"
         id="tspan3364"
         x="-308.81412"
         y="482.62589"
         style="font-weight:bold">Em</tspan></text>
    <text
       xml:space="preserve"
       style="font-style:normal;font-weight:normal;font-size:278.34512329px;line-height:125%;font-family:sans-serif;letter-spacing:0px;word-spacing:0px;fill:#ffffff;fill-opacity:1;stroke:none;stroke-width:1px;stroke-linecap:butt;stroke-linejoin:miter;stroke-opacity:1"
       x="368.11005"
       y="410.38486"
       id="text3366"
       sodipodi:linespacing="125%"
       transform="scale(0.65432847,1.5282844)"><tspan
         sodipodi:role="line"
         id="tspan3368"
         x="368.11005"
         y="410.38486"
         style="font-weight:bold">Breve</tspan></text>
  </g>
</svg>
